<?xml version="1.0" encoding="UTF-8" standalone="no"?>
<svg
   xmlns:dc="http://purl.org/dc/elements/1.1/"
   xmlns:cc="http://creativecommons.org/ns#"
   xmlns:rdf="http://www.w3.org/1999/02/22-rdf-syntax-ns#"
   xmlns:svg="http://www.w3.org/2000/svg"
   xmlns="http://www.w3.org/2000/svg"
   xmlns:sodipodi="http://sodipodi.sourceforge.net/DTD/sodipodi-0.dtd"
   xmlns:inkscape="http://www.inkscape.org/namespaces/inkscape"
   width="256"
   height="256"
   viewBox="0 0 67.733335 67.733335"
   version="1.1"
   id="svg8"
   inkscape:export-filename="/home/qh73xe/Documents/proj/rt-mri/mri-vuewer.dev/src/assets/logo2.png"
   inkscape:export-xdpi="96"
   inkscape:export-ydpi="96"
   inkscape:version="1.0 (b51213c273, 2020-08-10)"
   sodipodi:docname="logo2.svg">
  <defs
     id="defs2" />
  <sodipodi:namedview
     id="base"
     pagecolor="#ffffff"
     bordercolor="#666666"
     borderopacity="1.0"
     inkscape:pageopacity="0.0"
     inkscape:pageshadow="2"
     inkscape:zoom="1.2804387"
     inkscape:cx="270.74036"
     inkscape:cy="18.912909"
     inkscape:document-units="mm"
     inkscape:current-layer="g2184"
     inkscape:document-rotation="0"
     showgrid="false"
     units="px"
     fit-margin-top="0"
     fit-margin-left="0"
     fit-margin-right="0"
     fit-margin-bottom="0"
     inkscape:window-width="1848"
     inkscape:window-height="1009"
     inkscape:window-x="72"
     inkscape:window-y="34"
     inkscape:window-maximized="1"
     showguides="false">
    <inkscape:grid
       type="xygrid"
       id="grid2094" />
  </sodipodi:namedview>
  <metadata
     id="metadata5">
    <rdf:RDF>
      <cc:Work
         rdf:about="">
        <dc:format>image/svg+xml</dc:format>
        <dc:type
           rdf:resource="http://purl.org/dc/dcmitype/StillImage" />
        <dc:title />
      </cc:Work>
    </rdf:RDF>
  </metadata>
  <g
     inkscape:label="レイヤー 1"
     inkscape:groupmode="layer"
     id="layer1"
     transform="translate(0.06150735,0.00550594)">
    <g
       id="g921"
       transform="matrix(0.72424965,0,0,-0.72424965,-63.790188,61.256635)">
      <g
         id="g1077"
         transform="translate(0.13394616,-6.2621052)">
        <g
           id="g2184"
           transform="matrix(1.1363636,0,0,1.1363636,-214.78559,15.224561)">
          <circle
             style="fill:#000000;fill-opacity:1;stroke-width:0.590532"
             id="path2052-9-0"
             cx="307.50793"
             cy="-25.375134"
             transform="scale(1,-1)"
             r="38.358665" />
          <path
             id="path2052-9-3"
             style="fill:#ffffff;fill-opacity:1;stroke-width:0.562411"
             d="m 306.24112,62.186421 c 0,0 -7.45197,-0.0892 -7.45197,-1.86014 l 0.2326,-1.00463 c 0.28292,-1.21944 1.04136,-2.51338 2.21405,-3.77665 1.09508,-1.17968 0.8964,-1.71616 -1.10524,-2.9825 -1.41936,-0.89795 -1.71272,-0.95939 -2.79056,-0.58365 -1.67461,0.58377 -2.66745,1.63615 -2.24901,2.38386 0.23283,0.41604 0.0734,0.96758 -0.54156,1.87369 -0.46033,0.67832 -0.92939,1.81646 -1.07527,2.58935 a 36.532062,36.532062 0 0 1 -2.96823,-1.39421 l 0.0128,-0.72921 c 0.0793,-4.48407 0.008,-4.59793 -5.44199,-8.68778 -5.02212,-3.76863 -6.00139,-4.83425 -6.00139,-6.53225 0,-0.71328 0.16981,-1.61414 0.37745,-2.00213 0.40091,-0.7491 2.88093,-2.16909 3.78806,-2.16909 0.29754,0 0.64143,-0.16314 0.76418,-0.36175 0.31188,-0.50465 -1.01008,-3.33268 -1.94647,-4.16409 -1.71602,-1.5236 -1.32586,-4.48841 0.73064,-5.55187 1.48336,-0.76708 2.51794,-0.6329 3.67604,0.47663 0.88679,0.8496 1.14093,0.92896 1.75097,0.54798 1.15788,-0.72311 1.88077,-0.53489 4.56793,1.18943 3.71774,2.38564 4.70945,2.75073 7.43342,2.73563 5.31868,-0.0295 8.2517,-1.14057 11.26286,-4.26612 0.44249,-0.4593 0.98749,-0.83482 1.21155,-0.83482 0.22406,0 0.31589,-0.28844 0.20407,-0.64073 -0.27085,-0.853393 1.02368,-2.925604 2.14768,-3.437729 0.72039,-0.328237 1.08361,-0.28822 1.82732,0.199071 0.51055,0.334524 0.93092,0.809479 0.934,1.056005 0.0106,0.852862 0.71351,-0.628175 0.71922,-1.51551 0.003,-0.477456 0.48657,-2.861173 1.07384,-5.297149 0.58728,-2.435976 1.17432,-5.579559 1.30503,-6.986044 0.21973,-2.3644598 0.15337,-2.7304168 -0.88477,-4.8469198 -0.61752,-1.2589899 -1.12307,-2.69744 -1.12307,-3.196555 0,-0.52326 -0.21118,-0.906879 -0.49875,-0.906879 -0.27429,0 -0.94497,-0.351443 -1.49054,-0.78058799 l -0.99178,-0.780588 -1.62539,1.14590799 c -0.8939,0.630072 -1.78495,1.145909 -1.98001,1.145909 -0.78175,0 -0.27555,1.046559 1.10523,2.2861071 1.67989,1.5080729 2.10815,2.4381199 2.3118,5.0203049 0.10871,1.3786028 0.43032,2.2068478 1.25722,3.2357988 1.86237,2.317484 2.21331,4.905312 0.72921,5.376349 -0.84395,0.267853 -1.73956,-0.605801 -1.73956,-1.696743 0,-0.338849 -0.22836,-0.806072 -0.50802,-1.038167 -0.41606,-0.345298 -0.539,-0.170339 -0.67356,0.960394 -0.16989,1.427545 -0.67363,3.602447 -1.6204,6.990324 -0.42969,1.53759 -0.98009,2.375151 -2.57223,3.917211 -4.54327,4.4004 -8.62755,4.83516 -13.55824,1.44344 -0.96575,-0.66432 -2.64903,-1.65378 -3.74097,-2.19906 -1.09194,-0.54528 -2.60344,-1.584119 -3.35852,-2.308938 -1.36683,-1.312005 -1.37761,-1.315058 -2.43096,-0.692825 -1.56035,0.921723 -2.51672,0.770454 -3.90436,-0.617192 -0.88944,-0.889435 -1.24223,-1.570692 -1.24223,-2.398844 0,-1.379955 0.57199,-2.569374 1.23509,-2.569374 0.26318,0 0.79169,-0.347643 1.17446,-0.772025 0.61683,-0.683931 0.68489,-1.27932 0.60078,-5.237927 -0.0878,-4.1313368 -0.0325,-4.5587258 0.7392,-5.7038518 0.99528,-1.4768929 2.79462,-2.75184 4.61003,-3.266482 0.72687,-0.206062 3.45562,-0.627164 6.06347,-0.936134 2.60784,-0.308973 5.85906,-0.936784 7.22507,-1.39492499 1.38878,-0.465784 2.42901,-0.658619 2.36031,-0.437384 -0.19201,0.61829 -5.57653,2.30038399 -9.26216,2.89330999 -1.83536,0.295263 -3.72181,0.7426751 -4.19263,0.9946401 -0.82317,0.440558 -0.82819,0.469185 -0.13342,0.740633 0.39737,0.15525 1.13958,0.294123 1.64965,0.308239 0.51006,0.01414 1.57862,0.369884 2.37458,0.7905759 1.58998,0.840365 3.75995,0.939762 6.17834,0.283266 0.81347,-0.220826 2.30109,-0.423761 3.30573,-0.450945 1.42262,-0.03849 1.7976,-0.170429 1.69603,-0.5972109 -0.53387,-2.2431201 -0.44605,-3.1583471 0.42525,-4.43522309 0.83412,-1.222392 0.86019,-1.377397 0.31966,-1.91793301 -0.54053,-0.540525 -0.51867,-0.587936 0.26685,-0.587936 0.76055,0 0.82916,-0.124622 0.6279,-1.130923 -0.1844,-0.921982 -0.0946,-1.165154 0.48662,-1.317153 0.87738,-0.229436 1.63024,-2.3475101 1.34355,-3.7809261 -0.1154,-0.576998 -0.0695,-1.136194 0.10203,-1.242232 0.17157,-0.106031 0.41485,-0.742562 0.54085,-1.4141931 0.0235,-0.125097 0.0724,-0.287332 0.132,-0.463785 a 36.532062,36.532062 0 0 1 3.70386,0.678554 c -0.19655,0.6830721 -0.48294,1.3650821 -0.75347,1.7309951 -0.44105,0.596557 -0.80461,1.925433 -0.98251,3.5904141 l -0.28256,2.643581 1.1188,0.677842 c 0.64733,0.392303 1.79006,0.674191 2.71137,0.668565 1.58914,-0.0097 1.59186,-0.0125 1.40063,-1.190861 -0.16963,-1.045262 0.22215,-4.3705351 0.73563,-6.9460851 a 36.532062,36.532062 0 0 1 24.15612,34.3715319 36.532062,36.532062 0 0 1 -1.0239,8.587891 l -0.19265,-0.10275 0.17909,0.15983 a 36.532062,36.532062 0 0 1 -25.82431,26.58421 c -3.53958,1.11079 -7.22771,1.86004 -10.9375,1.86014 z m -0.22333,-10.2775 c 0.19726,0.009 0.52592,-0.0528 1.04245,-0.15555 0.78305,-0.15576 2.32343,-0.33283 3.42345,-0.39386 1.15807,-0.0643 2.06256,-0.29831 2.1484,-0.55583 0.0815,-0.2446 0.72165,-1.07917 1.42204,-1.85443 1.13902,-1.26076 1.45713,-1.40919 3.01532,-1.40919 1.40482,0 1.84546,-0.15913 2.27612,-0.82197 0.62835,-0.96713 1.1651,-4.5195 0.72422,-4.79198 -0.57516,-0.35547 -5.74137,-0.56408 -6.83692,-0.27613 -1.66025,0.43637 -3.35497,1.40799 -3.60897,2.06991 -0.40404,1.05293 -0.24087,2.62314 0.32108,3.08953 0.81517,0.67652 0.67196,1.01067 -0.54798,1.27862 -1.11808,0.24557 -1.39942,0.68231 -0.7128,1.10666 0.46006,0.28434 -0.23946,1.26792 -0.90189,1.26792 -0.23631,0 -1.13317,-0.67589 -1.99285,-1.50195 l -1.56331,-1.50195 0.11987,1.0453 c 0.0749,0.65541 0.42055,1.17741 0.92757,1.39992 0.62672,0.27504 0.75872,0.5547 0.5858,1.24366 -0.1349,0.53751 -0.17035,0.74685 0.1584,0.76132 z m -4.01568,-0.0535 c 0.20024,1e-5 0.4216,-0.0279 0.65715,-0.087 1.32828,-0.33338 1.07909,-0.94041 -0.38601,-0.94041 -0.70324,0 -1.27862,0.15413 -1.27862,0.3432 0,0.43077 0.40679,0.68423 1.00748,0.68426 z m 15.7673,-4.72634 c -0.12691,0.005 -0.272,-0.0179 -0.40385,-0.0706 -0.29143,-0.11662 -0.2051,-0.20294 0.22048,-0.22047 0.38511,-0.0159 0.60088,0.0705 0.47948,0.19193 -0.0607,0.0607 -0.1692,0.094 -0.29611,0.0992 z m -31.76292,-4.71706 0.92329,-0.0128 -0.84694,-0.46949 c -0.83081,-0.46098 -0.81881,-0.47858 0.63931,-0.91544 1.73583,-0.52007 2.05654,-1.3461 0.39029,-1.00535 -0.60277,0.12327 -1.58718,0.32516 -2.18764,0.44809 -0.81025,0.16588 -1.15017,0.0717 -1.31786,-0.36532 -0.24471,-0.63769 -0.87834,-0.80973 -0.87834,-0.23832 0,0.19301 0.25814,0.5629 0.57366,0.82198 0.31553,0.25908 0.84539,0.75932 1.17731,1.11094 0.3319,0.35162 1.01903,0.63288 1.52692,0.62576 z m 0.84124,-3.33712 c 0.094,-0.004 0.30097,-0.057 0.63004,-0.14555 0.50231,-0.13518 1.15989,-0.38532 1.46128,-0.55583 0.43764,-0.2476 0.39663,-0.31221 -0.20407,-0.32109 -0.41368,-0.006 -1.07126,0.24404 -1.46128,0.55583 -0.42587,0.34044 -0.58267,0.47274 -0.42597,0.46664 z m 27.30486,-0.66499 c 0.60607,-0.002 1.16265,-0.20125 1.50124,-0.61291 0.45599,-0.55441 0.38585,-0.58821 -0.77702,-0.37175 -0.97052,0.18066 -1.12457,0.14719 -0.63931,-0.13913 0.35162,-0.20747 0.63931,-0.55532 0.63931,-0.77345 0,-0.21814 0.38516,-0.75353 0.85551,-1.18944 0.7094,-0.65746 0.89227,-1.28603 1.07384,-3.68674 0.12038,-1.5917 0.16861,-2.94375 0.10703,-3.00533 -0.0616,-0.0616 -0.55982,0.80374 -1.10738,1.92293 -0.54757,1.11918 -1.37826,2.28485 -1.84515,2.59078 -0.4669,0.30592 -2.12379,0.75188 -3.68246,0.99107 l -2.83409,0.43525 1.80306,0.98037 c 0.99179,0.5392 2.1998,1.40227 2.68424,1.91793 0.58139,0.61885 1.44195,0.94272 2.22118,0.94042 z m -21.37768,-2.92542 c 0.54459,0 0.85921,-0.15731 0.73065,-0.36532 -0.12418,-0.20093 -0.45297,-0.36532 -0.73065,-0.36532 -0.27767,0 -0.60646,0.16439 -0.73064,0.36532 -0.12856,0.20801 0.18605,0.36532 0.73064,0.36532 z m 8.5037,-0.95183 c 1.78739,-0.0126 3.25543,-0.0738 3.44771,-0.19265 0.7261,-0.44876 -0.96153,-0.95503 -4.58577,-1.37566 -1.97668,-0.22942 -4.06414,-0.66083 -4.63929,-0.95826 -1.53083,-0.79162 -1.81304,-0.68017 -1.81304,0.71637 0,0.69139 0.18637,1.37208 0.41383,1.51266 0.33084,0.20446 4.19756,0.31854 7.17656,0.29754 z m -11.39558,-2.76845 c 0.63222,-0.0582 0.97481,-1.46544 0.41527,-1.99214 -0.7075,-0.66598 -2.00222,-0.93597 -2.28611,-0.47663 -0.31114,0.50343 0.96542,2.30898 1.74027,2.46164 0.0445,0.009 0.0884,0.011 0.13057,0.007 z m -0.96539,-10.161907 c 0.21278,0 0.38673,-0.164393 0.38673,-0.36532 0,-0.200926 -0.0727,-0.365321 -0.16125,-0.365321 -0.0886,0 -0.26255,0.164395 -0.38673,0.365321 -0.12418,0.200927 -0.0515,0.36532 0.16125,0.36532 z m 0.97039,-1.862992 c 0.35792,0.01006 1.14656,-0.503167 2.39456,-1.520504 2.3098,-1.882899 4.90496,-6.318613 4.54225,-7.763777 -0.31416,-1.2517148 -2.34202,-3.4655508 -3.17444,-3.4655508 -0.38104,0 -1.02162,0.328788 -1.42347,0.730641 -0.62623,0.626233 -0.73064,1.217574 -0.73064,4.1391108 0,2.91075 -0.13328,3.67114 -0.91187,5.205819 -0.90486,1.78355 -1.15657,2.661322 -0.69639,2.674261 z m 3.0617,-3.740255 c -0.57044,0.01683 -0.74373,-1.135743 -0.6279,-3.726699 0.17499,-3.9144598 0.59797,-4.5025128 2.35247,-3.2736148 1.21049,0.847861 1.39657,2.4797558 0.49589,4.3403228 -0.4235,0.874829 -1.10432,1.893806 -1.51337,2.263989 -0.28237,0.255538 -0.51694,0.39039 -0.70709,0.396002 z m 7.72952,-10.2453868 c -0.64387,-0.01914 -0.95142,-0.1773599 -0.66285,-0.4659269 0.69974,-0.699738 6.82336,-2.3139771 6.82336,-1.7987761 0,0.08403 0.1,0.4128271 0.2219,0.7306411 0.15986,0.41659 0.002,0.577948 -0.56439,0.577948 -0.43229,0 -1.84344,0.265424 -3.13591,0.590077 -1.05774,0.2657049 -2.03824,0.3851789 -2.68211,0.3660369 z m 10.89327,-0.04281 0.009,-1.1487619 c 0.005,-0.715641 -0.20993,-1.2317441 -0.5701,-1.3699521 -0.8014,-0.307524 -0.88474,-0.284658 -0.87548,0.23546 0.004,0.2511581 0.32988,0.8676361 0.72279,1.3699521 z M 297.78594,4.4151013 c -0.26562,0 -0.40559,-0.115635 -0.26186,-0.348194 0.12418,-0.20093 0.58582,-0.363403 1.02604,-0.360327 0.65072,0.0045 0.69809,0.07242 0.25258,0.360327 -0.35985,0.232559 -0.75114,0.348194 -1.01676,0.348194 z"
             inkscape:export-xdpi="96"
             inkscape:export-ydpi="96" />
        </g>
      </g>
    </g>
  </g>
</svg>
